<mxfile host="app.diagrams.net" modified="2023-04-07T07:34:40.913Z" agent="Mozilla/5.0 (Windows NT 10.0; Win64; x64) AppleWebKit/537.36 (KHTML, like Gecko) Chrome/111.0.0.0 Safari/537.36" etag="IbNgl4o_njCq6X2JWHzR" version="21.1.4" type="github">
  <diagram name="第 1 页" id="dYUoFG49znBWoF7892X2">
    <mxGraphModel dx="1440" dy="764" grid="0" gridSize="10" guides="1" tooltips="1" connect="1" arrows="1" fold="1" page="1" pageScale="1" pageWidth="827" pageHeight="1169" math="0" shadow="0">
      <root>
        <mxCell id="0" />
        <mxCell id="1" parent="0" />
        <mxCell id="x_W76neEEtvd7lcD01PX-147" value="分页条件loop" style="shape=umlFrame;whiteSpace=wrap;html=1;pointerEvents=0;fillColor=#fff2cc;strokeColor=default;swimlaneFillColor=none;gradientColor=none;" vertex="1" parent="1">
          <mxGeometry x="90" y="1310" width="1080" height="280" as="geometry" />
        </mxCell>
        <mxCell id="x_W76neEEtvd7lcD01PX-83" value="" style="rounded=0;whiteSpace=wrap;html=1;movable=1;resizable=1;rotatable=1;deletable=1;editable=1;locked=0;connectable=1;" vertex="1" parent="1">
          <mxGeometry x="125" y="750" width="300" height="122.5" as="geometry" />
        </mxCell>
        <mxCell id="x_W76neEEtvd7lcD01PX-37" value="CDP_CUSTOMER_SEGMENT_CALCULATION" style="text;whiteSpace=wrap;html=1;movable=1;resizable=1;rotatable=1;deletable=1;editable=1;locked=0;connectable=1;" vertex="1" parent="1">
          <mxGeometry x="145" y="755.75" width="260" height="40" as="geometry" />
        </mxCell>
        <mxCell id="x_W76neEEtvd7lcD01PX-38" value="CDP_CUSTOMER_SEGMENT_IMPORT" style="text;whiteSpace=wrap;html=1;movable=1;resizable=1;rotatable=1;deletable=1;editable=1;locked=0;connectable=1;" vertex="1" parent="1">
          <mxGeometry x="145" y="791.25" width="230" height="40" as="geometry" />
        </mxCell>
        <mxCell id="x_W76neEEtvd7lcD01PX-39" value="CDP_CID_CHANNEL_CUSTOMER" style="text;whiteSpace=wrap;html=1;movable=1;resizable=1;rotatable=1;deletable=1;editable=1;locked=0;connectable=1;" vertex="1" parent="1">
          <mxGeometry x="155" y="831.25" width="210" height="35" as="geometry" />
        </mxCell>
        <mxCell id="x_W76neEEtvd7lcD01PX-84" style="edgeStyle=orthogonalEdgeStyle;rounded=0;orthogonalLoop=1;jettySize=auto;html=1;exitX=0.25;exitY=1;exitDx=0;exitDy=0;" edge="1" parent="1" source="x_W76neEEtvd7lcD01PX-71">
          <mxGeometry relative="1" as="geometry">
            <mxPoint x="270" y="750" as="targetPoint" />
            <Array as="points">
              <mxPoint x="270" y="680" />
            </Array>
          </mxGeometry>
        </mxCell>
        <mxCell id="x_W76neEEtvd7lcD01PX-102" value="从starrocks 分批获取数据" style="edgeLabel;html=1;align=center;verticalAlign=middle;resizable=0;points=[];" vertex="1" connectable="0" parent="x_W76neEEtvd7lcD01PX-84">
          <mxGeometry x="-0.3467" y="3" relative="1" as="geometry">
            <mxPoint x="-6" y="33" as="offset" />
          </mxGeometry>
        </mxCell>
        <mxCell id="x_W76neEEtvd7lcD01PX-92" style="edgeStyle=orthogonalEdgeStyle;rounded=0;orthogonalLoop=1;jettySize=auto;html=1;exitX=1;exitY=0.5;exitDx=0;exitDy=0;entryX=0;entryY=0.5;entryDx=0;entryDy=0;entryPerimeter=0;" edge="1" parent="1" source="x_W76neEEtvd7lcD01PX-71" target="x_W76neEEtvd7lcD01PX-91">
          <mxGeometry relative="1" as="geometry" />
        </mxCell>
        <mxCell id="x_W76neEEtvd7lcD01PX-100" value="存储数据" style="edgeLabel;html=1;align=center;verticalAlign=middle;resizable=0;points=[];" vertex="1" connectable="0" parent="x_W76neEEtvd7lcD01PX-92">
          <mxGeometry x="-0.1263" y="1" relative="1" as="geometry">
            <mxPoint x="16" y="1" as="offset" />
          </mxGeometry>
        </mxCell>
        <mxCell id="x_W76neEEtvd7lcD01PX-71" value="CDP JOB Server" style="rounded=1;whiteSpace=wrap;html=1;" vertex="1" parent="1">
          <mxGeometry x="200" y="620" width="120" height="60" as="geometry" />
        </mxCell>
        <mxCell id="x_W76neEEtvd7lcD01PX-91" value="stage" style="shape=cylinder3;whiteSpace=wrap;html=1;boundedLbl=1;backgroundOutline=1;size=15;" vertex="1" parent="1">
          <mxGeometry x="700" y="610" width="60" height="80" as="geometry" />
        </mxCell>
        <mxCell id="x_W76neEEtvd7lcD01PX-93" value="target" style="shape=cylinder3;whiteSpace=wrap;html=1;boundedLbl=1;backgroundOutline=1;size=15;" vertex="1" parent="1">
          <mxGeometry x="900" y="610" width="60" height="80" as="geometry" />
        </mxCell>
        <mxCell id="x_W76neEEtvd7lcD01PX-94" style="edgeStyle=orthogonalEdgeStyle;rounded=0;orthogonalLoop=1;jettySize=auto;html=1;exitX=1;exitY=0.5;exitDx=0;exitDy=0;exitPerimeter=0;entryX=0;entryY=0.5;entryDx=0;entryDy=0;entryPerimeter=0;" edge="1" parent="1" source="x_W76neEEtvd7lcD01PX-91" target="x_W76neEEtvd7lcD01PX-93">
          <mxGeometry relative="1" as="geometry" />
        </mxCell>
        <mxCell id="x_W76neEEtvd7lcD01PX-105" value="当数据存储到stage完成后，在事务中转存数据到target" style="text;html=1;strokeColor=none;fillColor=none;align=center;verticalAlign=middle;whiteSpace=wrap;rounded=0;" vertex="1" parent="1">
          <mxGeometry x="690" y="730" width="310" height="30" as="geometry" />
        </mxCell>
        <mxCell id="x_W76neEEtvd7lcD01PX-108" value="通过CDP_JOB_LOG表判断job是否执行完成，&lt;br&gt;只能通过import 的created字段感知当天是否有导入数据，如果没有数据则不运行。" style="text;html=1;strokeColor=none;fillColor=none;align=left;verticalAlign=middle;whiteSpace=wrap;rounded=0;" vertex="1" parent="1">
          <mxGeometry x="160" y="500" width="310" height="85" as="geometry" />
        </mxCell>
        <mxCell id="x_W76neEEtvd7lcD01PX-109" value="发送成功后，将每个批次的offset保存到CDP_SEGMENT_DELIVERY_LOG表" style="text;html=1;strokeColor=none;fillColor=none;align=center;verticalAlign=middle;whiteSpace=wrap;rounded=0;" vertex="1" parent="1">
          <mxGeometry x="390" y="660" width="250" height="60" as="geometry" />
        </mxCell>
        <mxCell id="x_W76neEEtvd7lcD01PX-117" value="CDP JOB Server" style="shape=umlLifeline;perimeter=lifelinePerimeter;whiteSpace=wrap;html=1;container=1;dropTarget=0;collapsible=0;recursiveResize=0;outlineConnect=0;portConstraint=eastwest;newEdgeStyle={&quot;edgeStyle&quot;:&quot;elbowEdgeStyle&quot;,&quot;elbow&quot;:&quot;vertical&quot;,&quot;curved&quot;:0,&quot;rounded&quot;:0};" vertex="1" parent="1">
          <mxGeometry x="110" y="980" width="113" height="978" as="geometry" />
        </mxCell>
        <mxCell id="x_W76neEEtvd7lcD01PX-118" value="" style="html=1;points=[];perimeter=orthogonalPerimeter;outlineConnect=0;targetShapes=umlLifeline;portConstraint=eastwest;newEdgeStyle={&quot;edgeStyle&quot;:&quot;elbowEdgeStyle&quot;,&quot;elbow&quot;:&quot;vertical&quot;,&quot;curved&quot;:0,&quot;rounded&quot;:0};" vertex="1" parent="x_W76neEEtvd7lcD01PX-117">
          <mxGeometry x="52" y="90" width="10" height="788" as="geometry" />
        </mxCell>
        <mxCell id="x_W76neEEtvd7lcD01PX-119" value="starrocks.CDP_MBHK_CALCULATION" style="shape=umlLifeline;perimeter=lifelinePerimeter;whiteSpace=wrap;html=1;container=1;dropTarget=0;collapsible=0;recursiveResize=0;outlineConnect=0;portConstraint=eastwest;newEdgeStyle={&quot;edgeStyle&quot;:&quot;elbowEdgeStyle&quot;,&quot;elbow&quot;:&quot;vertical&quot;,&quot;curved&quot;:0,&quot;rounded&quot;:0};" vertex="1" parent="1">
          <mxGeometry x="390" y="980" width="220" height="985" as="geometry" />
        </mxCell>
        <mxCell id="x_W76neEEtvd7lcD01PX-120" value="" style="html=1;points=[];perimeter=orthogonalPerimeter;outlineConnect=0;targetShapes=umlLifeline;portConstraint=eastwest;newEdgeStyle={&quot;edgeStyle&quot;:&quot;elbowEdgeStyle&quot;,&quot;elbow&quot;:&quot;vertical&quot;,&quot;curved&quot;:0,&quot;rounded&quot;:0};" vertex="1" parent="x_W76neEEtvd7lcD01PX-119">
          <mxGeometry x="105" y="100" width="10" height="40" as="geometry" />
        </mxCell>
        <mxCell id="x_W76neEEtvd7lcD01PX-136" value="" style="html=1;points=[];perimeter=orthogonalPerimeter;outlineConnect=0;targetShapes=umlLifeline;portConstraint=eastwest;newEdgeStyle={&quot;edgeStyle&quot;:&quot;elbowEdgeStyle&quot;,&quot;elbow&quot;:&quot;vertical&quot;,&quot;curved&quot;:0,&quot;rounded&quot;:0};" vertex="1" parent="x_W76neEEtvd7lcD01PX-119">
          <mxGeometry x="105" y="355" width="10" height="80" as="geometry" />
        </mxCell>
        <mxCell id="x_W76neEEtvd7lcD01PX-121" value="" style="html=1;verticalAlign=bottom;startArrow=oval;startFill=1;endArrow=block;startSize=8;edgeStyle=elbowEdgeStyle;elbow=vertical;curved=0;rounded=0;" edge="1" parent="1" source="x_W76neEEtvd7lcD01PX-118" target="x_W76neEEtvd7lcD01PX-120">
          <mxGeometry width="60" relative="1" as="geometry">
            <mxPoint x="320" y="1080" as="sourcePoint" />
            <mxPoint x="380" y="1080" as="targetPoint" />
            <Array as="points">
              <mxPoint x="470" y="1080" />
            </Array>
          </mxGeometry>
        </mxCell>
        <mxCell id="x_W76neEEtvd7lcD01PX-124" value="&lt;div&gt;1. 通过 CDP_CUSTOMER_SEGMENT_CALCULATION&amp;nbsp;&lt;/div&gt;&lt;div&gt;的Created字段查询当天是否有新的数据&lt;/div&gt;&lt;div&gt;&lt;br&gt;&lt;/div&gt;" style="edgeLabel;html=1;align=center;verticalAlign=middle;resizable=0;points=[];" vertex="1" connectable="0" parent="x_W76neEEtvd7lcD01PX-121">
          <mxGeometry x="-0.0298" y="-3" relative="1" as="geometry">
            <mxPoint as="offset" />
          </mxGeometry>
        </mxCell>
        <mxCell id="x_W76neEEtvd7lcD01PX-125" value="&amp;nbsp;返回总数" style="html=1;verticalAlign=bottom;endArrow=open;dashed=1;endSize=8;edgeStyle=elbowEdgeStyle;elbow=vertical;curved=0;rounded=0;" edge="1" parent="1" source="x_W76neEEtvd7lcD01PX-120" target="x_W76neEEtvd7lcD01PX-118">
          <mxGeometry relative="1" as="geometry">
            <mxPoint x="490" y="1120" as="sourcePoint" />
            <mxPoint x="180" y="1160" as="targetPoint" />
            <Array as="points">
              <mxPoint x="450" y="1120" />
              <mxPoint x="380" y="1160" />
            </Array>
          </mxGeometry>
        </mxCell>
        <mxCell id="x_W76neEEtvd7lcD01PX-128" value="Adobe" style="shape=umlLifeline;perimeter=lifelinePerimeter;whiteSpace=wrap;html=1;container=1;dropTarget=0;collapsible=0;recursiveResize=0;outlineConnect=0;portConstraint=eastwest;newEdgeStyle={&quot;edgeStyle&quot;:&quot;elbowEdgeStyle&quot;,&quot;elbow&quot;:&quot;vertical&quot;,&quot;curved&quot;:0,&quot;rounded&quot;:0};" vertex="1" parent="1">
          <mxGeometry x="970" y="980" width="220" height="996" as="geometry" />
        </mxCell>
        <mxCell id="x_W76neEEtvd7lcD01PX-132" value="" style="html=1;points=[];perimeter=orthogonalPerimeter;outlineConnect=0;targetShapes=umlLifeline;portConstraint=eastwest;newEdgeStyle={&quot;edgeStyle&quot;:&quot;elbowEdgeStyle&quot;,&quot;elbow&quot;:&quot;vertical&quot;,&quot;curved&quot;:0,&quot;rounded&quot;:0};" vertex="1" parent="x_W76neEEtvd7lcD01PX-128">
          <mxGeometry x="105" y="480" width="10" height="40" as="geometry" />
        </mxCell>
        <mxCell id="x_W76neEEtvd7lcD01PX-152" value="" style="html=1;verticalAlign=bottom;endArrow=block;edgeStyle=elbowEdgeStyle;elbow=vertical;curved=0;rounded=0;" edge="1" parent="x_W76neEEtvd7lcD01PX-128" source="x_W76neEEtvd7lcD01PX-118">
          <mxGeometry relative="1" as="geometry">
            <mxPoint x="-800" y="270" as="sourcePoint" />
            <mxPoint x="105" y="270" as="targetPoint" />
            <Array as="points">
              <mxPoint x="-230" y="270" />
              <mxPoint x="-240" y="260" />
              <mxPoint x="-310" y="180" />
              <mxPoint x="70" y="150" />
            </Array>
          </mxGeometry>
        </mxCell>
        <mxCell id="x_W76neEEtvd7lcD01PX-153" value="delete stage&amp;nbsp;by target group id" style="edgeLabel;html=1;align=center;verticalAlign=middle;resizable=0;points=[];" vertex="1" connectable="0" parent="x_W76neEEtvd7lcD01PX-152">
          <mxGeometry x="-0.0209" relative="1" as="geometry">
            <mxPoint as="offset" />
          </mxGeometry>
        </mxCell>
        <mxCell id="x_W76neEEtvd7lcD01PX-154" value="return" style="html=1;verticalAlign=bottom;endArrow=open;dashed=1;endSize=8;edgeStyle=elbowEdgeStyle;elbow=vertical;curved=0;rounded=0;" edge="1" parent="x_W76neEEtvd7lcD01PX-128">
          <mxGeometry relative="1" as="geometry">
            <mxPoint x="-798" y="310" as="targetPoint" />
            <mxPoint x="105" y="310" as="sourcePoint" />
            <Array as="points">
              <mxPoint x="-300" y="310" />
              <mxPoint x="-40" y="330" />
              <mxPoint x="-230" y="320" />
              <mxPoint x="-270" y="330" />
              <mxPoint x="-320" y="210" />
            </Array>
          </mxGeometry>
        </mxCell>
        <mxCell id="x_W76neEEtvd7lcD01PX-155" value="" style="html=1;points=[];perimeter=orthogonalPerimeter;outlineConnect=0;targetShapes=umlLifeline;portConstraint=eastwest;newEdgeStyle={&quot;edgeStyle&quot;:&quot;elbowEdgeStyle&quot;,&quot;elbow&quot;:&quot;vertical&quot;,&quot;curved&quot;:0,&quot;rounded&quot;:0};" vertex="1" parent="x_W76neEEtvd7lcD01PX-128">
          <mxGeometry x="105" y="270" width="10" height="40" as="geometry" />
        </mxCell>
        <mxCell id="x_W76neEEtvd7lcD01PX-160" value="" style="html=1;points=[];perimeter=orthogonalPerimeter;outlineConnect=0;targetShapes=umlLifeline;portConstraint=eastwest;newEdgeStyle={&quot;edgeStyle&quot;:&quot;elbowEdgeStyle&quot;,&quot;elbow&quot;:&quot;vertical&quot;,&quot;curved&quot;:0,&quot;rounded&quot;:0};" vertex="1" parent="x_W76neEEtvd7lcD01PX-128">
          <mxGeometry x="105" y="663" width="10" height="34" as="geometry" />
        </mxCell>
        <mxCell id="x_W76neEEtvd7lcD01PX-166" value="" style="html=1;points=[];perimeter=orthogonalPerimeter;outlineConnect=0;targetShapes=umlLifeline;portConstraint=eastwest;newEdgeStyle={&quot;edgeStyle&quot;:&quot;elbowEdgeStyle&quot;,&quot;elbow&quot;:&quot;vertical&quot;,&quot;curved&quot;:0,&quot;rounded&quot;:0};" vertex="1" parent="x_W76neEEtvd7lcD01PX-128">
          <mxGeometry x="105" y="734" width="10" height="35" as="geometry" />
        </mxCell>
        <mxCell id="x_W76neEEtvd7lcD01PX-129" value="mysql.CDP_MBHK_SCHEDULE_JOB" style="shape=umlLifeline;perimeter=lifelinePerimeter;whiteSpace=wrap;html=1;container=1;dropTarget=0;collapsible=0;recursiveResize=0;outlineConnect=0;portConstraint=eastwest;newEdgeStyle={&quot;edgeStyle&quot;:&quot;elbowEdgeStyle&quot;,&quot;elbow&quot;:&quot;vertical&quot;,&quot;curved&quot;:0,&quot;rounded&quot;:0};" vertex="1" parent="1">
          <mxGeometry x="710" y="980" width="210" height="979" as="geometry" />
        </mxCell>
        <mxCell id="x_W76neEEtvd7lcD01PX-130" value="" style="html=1;points=[];perimeter=orthogonalPerimeter;outlineConnect=0;targetShapes=umlLifeline;portConstraint=eastwest;newEdgeStyle={&quot;edgeStyle&quot;:&quot;elbowEdgeStyle&quot;,&quot;elbow&quot;:&quot;vertical&quot;,&quot;curved&quot;:0,&quot;rounded&quot;:0};" vertex="1" parent="x_W76neEEtvd7lcD01PX-129">
          <mxGeometry x="100" y="199" width="10" height="51" as="geometry" />
        </mxCell>
        <mxCell id="x_W76neEEtvd7lcD01PX-144" value="" style="html=1;points=[];perimeter=orthogonalPerimeter;outlineConnect=0;targetShapes=umlLifeline;portConstraint=eastwest;newEdgeStyle={&quot;edgeStyle&quot;:&quot;elbowEdgeStyle&quot;,&quot;elbow&quot;:&quot;vertical&quot;,&quot;curved&quot;:0,&quot;rounded&quot;:0};" vertex="1" parent="x_W76neEEtvd7lcD01PX-129">
          <mxGeometry x="100" y="550" width="10" height="40" as="geometry" />
        </mxCell>
        <mxCell id="x_W76neEEtvd7lcD01PX-172" value="" style="html=1;points=[];perimeter=orthogonalPerimeter;outlineConnect=0;targetShapes=umlLifeline;portConstraint=eastwest;newEdgeStyle={&quot;edgeStyle&quot;:&quot;elbowEdgeStyle&quot;,&quot;elbow&quot;:&quot;vertical&quot;,&quot;curved&quot;:0,&quot;rounded&quot;:0};" vertex="1" parent="x_W76neEEtvd7lcD01PX-129">
          <mxGeometry x="100" y="827" width="10" height="51" as="geometry" />
        </mxCell>
        <mxCell id="x_W76neEEtvd7lcD01PX-173" value="修改CDP_SEGMENT_DELIVERY_LOG表同步状态为完成" style="html=1;verticalAlign=bottom;startArrow=oval;startFill=1;endArrow=block;startSize=8;edgeStyle=elbowEdgeStyle;elbow=vertical;curved=0;rounded=0;" edge="1" parent="x_W76neEEtvd7lcD01PX-129" target="x_W76neEEtvd7lcD01PX-172">
          <mxGeometry width="60" relative="1" as="geometry">
            <mxPoint x="-538" y="828" as="sourcePoint" />
            <mxPoint x="-350" y="848" as="targetPoint" />
            <Array as="points">
              <mxPoint x="-380" y="828" />
              <mxPoint x="-160" y="798" />
            </Array>
          </mxGeometry>
        </mxCell>
        <mxCell id="x_W76neEEtvd7lcD01PX-174" value="return" style="html=1;verticalAlign=bottom;endArrow=open;dashed=1;endSize=8;edgeStyle=elbowEdgeStyle;elbow=vertical;curved=0;rounded=0;" edge="1" parent="x_W76neEEtvd7lcD01PX-129" source="x_W76neEEtvd7lcD01PX-172">
          <mxGeometry relative="1" as="geometry">
            <mxPoint x="-100" y="858" as="sourcePoint" />
            <mxPoint x="-538" y="878" as="targetPoint" />
            <Array as="points">
              <mxPoint x="-150" y="878" />
            </Array>
          </mxGeometry>
        </mxCell>
        <mxCell id="x_W76neEEtvd7lcD01PX-131" value="2. 将同步的日志信息出入到CDP_SEGMENT_DELIVERY_LOG表" style="html=1;verticalAlign=bottom;startArrow=oval;startFill=1;endArrow=block;startSize=8;edgeStyle=elbowEdgeStyle;elbow=vertical;curved=0;rounded=0;" edge="1" parent="1" target="x_W76neEEtvd7lcD01PX-130">
          <mxGeometry width="60" relative="1" as="geometry">
            <mxPoint x="172" y="1180" as="sourcePoint" />
            <mxPoint x="360" y="1200" as="targetPoint" />
            <Array as="points">
              <mxPoint x="330" y="1180" />
              <mxPoint x="550" y="1150" />
            </Array>
          </mxGeometry>
        </mxCell>
        <mxCell id="x_W76neEEtvd7lcD01PX-135" value="return" style="html=1;verticalAlign=bottom;endArrow=open;dashed=1;endSize=8;edgeStyle=elbowEdgeStyle;elbow=vertical;curved=0;rounded=0;" edge="1" parent="1" source="x_W76neEEtvd7lcD01PX-130">
          <mxGeometry relative="1" as="geometry">
            <mxPoint x="610" y="1210" as="sourcePoint" />
            <mxPoint x="172" y="1230" as="targetPoint" />
            <Array as="points">
              <mxPoint x="560" y="1230" />
            </Array>
          </mxGeometry>
        </mxCell>
        <mxCell id="x_W76neEEtvd7lcD01PX-133" value="" style="html=1;verticalAlign=bottom;endArrow=block;edgeStyle=elbowEdgeStyle;elbow=vertical;curved=0;rounded=0;" edge="1" target="x_W76neEEtvd7lcD01PX-132" parent="1" source="x_W76neEEtvd7lcD01PX-118">
          <mxGeometry relative="1" as="geometry">
            <mxPoint x="170" y="1460" as="sourcePoint" />
            <Array as="points">
              <mxPoint x="740" y="1460" />
              <mxPoint x="730" y="1450" />
              <mxPoint x="660" y="1370" />
              <mxPoint x="1040" y="1340" />
            </Array>
          </mxGeometry>
        </mxCell>
        <mxCell id="x_W76neEEtvd7lcD01PX-139" value="分页查询的数据同步到stage表" style="edgeLabel;html=1;align=center;verticalAlign=middle;resizable=0;points=[];" vertex="1" connectable="0" parent="x_W76neEEtvd7lcD01PX-133">
          <mxGeometry x="-0.0209" relative="1" as="geometry">
            <mxPoint as="offset" />
          </mxGeometry>
        </mxCell>
        <mxCell id="x_W76neEEtvd7lcD01PX-134" value="return" style="html=1;verticalAlign=bottom;endArrow=open;dashed=1;endSize=8;edgeStyle=elbowEdgeStyle;elbow=vertical;curved=0;rounded=0;" edge="1" source="x_W76neEEtvd7lcD01PX-132" parent="1">
          <mxGeometry relative="1" as="geometry">
            <mxPoint x="172" y="1500" as="targetPoint" />
            <Array as="points">
              <mxPoint x="670" y="1500" />
              <mxPoint x="930" y="1520" />
              <mxPoint x="740" y="1510" />
              <mxPoint x="700" y="1520" />
              <mxPoint x="650" y="1400" />
            </Array>
          </mxGeometry>
        </mxCell>
        <mxCell id="x_W76neEEtvd7lcD01PX-137" value="分页查询CDP_CUSTOMER_SEGMENT_CALCULATION" style="html=1;verticalAlign=bottom;endArrow=block;edgeStyle=elbowEdgeStyle;elbow=vertical;curved=0;rounded=0;" edge="1" target="x_W76neEEtvd7lcD01PX-136" parent="1">
          <mxGeometry x="0.0031" relative="1" as="geometry">
            <mxPoint x="172" y="1340" as="sourcePoint" />
            <Array as="points">
              <mxPoint x="370" y="1340" />
            </Array>
            <mxPoint as="offset" />
          </mxGeometry>
        </mxCell>
        <mxCell id="x_W76neEEtvd7lcD01PX-138" value="分页查询的数据" style="html=1;verticalAlign=bottom;endArrow=open;dashed=1;endSize=8;edgeStyle=elbowEdgeStyle;elbow=vertical;curved=0;rounded=0;" edge="1" source="x_W76neEEtvd7lcD01PX-136" parent="1">
          <mxGeometry relative="1" as="geometry">
            <mxPoint x="172" y="1410" as="targetPoint" />
            <Array as="points">
              <mxPoint x="320" y="1410" />
            </Array>
          </mxGeometry>
        </mxCell>
        <mxCell id="x_W76neEEtvd7lcD01PX-145" value="同步上次插入的offset" style="html=1;verticalAlign=bottom;endArrow=block;edgeStyle=elbowEdgeStyle;elbow=vertical;curved=0;rounded=0;" edge="1" target="x_W76neEEtvd7lcD01PX-144" parent="1">
          <mxGeometry relative="1" as="geometry">
            <mxPoint x="172" y="1530" as="sourcePoint" />
            <Array as="points">
              <mxPoint x="740" y="1530" />
            </Array>
          </mxGeometry>
        </mxCell>
        <mxCell id="x_W76neEEtvd7lcD01PX-146" value="return" style="html=1;verticalAlign=bottom;endArrow=open;dashed=1;endSize=8;edgeStyle=elbowEdgeStyle;elbow=vertical;curved=0;rounded=0;" edge="1" source="x_W76neEEtvd7lcD01PX-144" parent="1">
          <mxGeometry relative="1" as="geometry">
            <mxPoint x="170" y="1570" as="targetPoint" />
            <Array as="points">
              <mxPoint x="730" y="1570" />
            </Array>
          </mxGeometry>
        </mxCell>
        <mxCell id="x_W76neEEtvd7lcD01PX-151" value="" style="html=1;points=[];perimeter=orthogonalPerimeter;outlineConnect=0;targetShapes=umlLifeline;portConstraint=eastwest;newEdgeStyle={&quot;edgeStyle&quot;:&quot;elbowEdgeStyle&quot;,&quot;elbow&quot;:&quot;vertical&quot;,&quot;curved&quot;:0,&quot;rounded&quot;:0};" vertex="1" parent="1">
          <mxGeometry x="1075" y="1460" width="10" height="40" as="geometry" />
        </mxCell>
        <mxCell id="x_W76neEEtvd7lcD01PX-161" value="delete target by target group id" style="html=1;verticalAlign=bottom;endArrow=block;edgeStyle=elbowEdgeStyle;elbow=vertical;curved=0;rounded=0;" edge="1" target="x_W76neEEtvd7lcD01PX-160" parent="1" source="x_W76neEEtvd7lcD01PX-118">
          <mxGeometry x="0.0011" relative="1" as="geometry">
            <mxPoint x="1005" y="1643" as="sourcePoint" />
            <Array as="points">
              <mxPoint x="425" y="1645" />
            </Array>
            <mxPoint as="offset" />
          </mxGeometry>
        </mxCell>
        <mxCell id="x_W76neEEtvd7lcD01PX-169" value="insert into&amp;nbsp; target&amp;nbsp; &amp;nbsp;&lt;br style=&quot;border-color: var(--border-color); text-align: left;&quot;&gt;&lt;span style=&quot;text-align: left;&quot;&gt;select * from stage where targetGroupId&lt;/span&gt;" style="html=1;verticalAlign=bottom;startArrow=oval;startFill=1;endArrow=block;startSize=8;edgeStyle=elbowEdgeStyle;elbow=vertical;curved=0;rounded=0;" edge="1" parent="1" source="x_W76neEEtvd7lcD01PX-118" target="x_W76neEEtvd7lcD01PX-166">
          <mxGeometry width="60" relative="1" as="geometry">
            <mxPoint x="177" y="1745" as="sourcePoint" />
            <mxPoint x="258" y="1704" as="targetPoint" />
            <Array as="points">
              <mxPoint x="912" y="1717" />
            </Array>
          </mxGeometry>
        </mxCell>
        <mxCell id="x_W76neEEtvd7lcD01PX-171" value="tx" style="shape=umlFrame;whiteSpace=wrap;html=1;pointerEvents=0;" vertex="1" parent="1">
          <mxGeometry x="89" y="1616" width="1085" height="148" as="geometry" />
        </mxCell>
      </root>
    </mxGraphModel>
  </diagram>
</mxfile>
